<svg width="84" height="33" viewBox="0 0 84 33" fill="none" xmlns="http://www.w3.org/2000/svg">
<path d="M79.4735 13.8549C80.3079 13.8549 81.068 14.0578 81.7538 14.4635C82.4395 14.8693 82.9853 15.415 83.3911 16.1008C83.7968 16.7809 83.9997 17.5352 83.9997 18.3639C83.9997 18.9868 83.8825 19.5726 83.6482 20.1212C83.4139 20.6698 83.0882 21.1527 82.671 21.5699C82.2595 21.9814 81.7795 22.3043 81.2309 22.5386C80.6879 22.7729 80.1022 22.8901 79.4735 22.8901C78.9363 22.8901 78.4592 22.77 78.042 22.53C77.6305 22.2843 77.2847 21.9671 77.0047 21.5785V22.6672H74.9131V9.80876H77.0047V15.1664C77.2847 14.7778 77.6305 14.4635 78.042 14.2235C78.4592 13.9777 78.9363 13.8549 79.4735 13.8549ZM79.4478 20.867C79.8936 20.867 80.2965 20.7556 80.6565 20.5327C81.0223 20.3041 81.3137 20.0012 81.5309 19.624C81.748 19.2468 81.8566 18.8268 81.8566 18.3639C81.8566 17.9067 81.748 17.4895 81.5309 17.1123C81.3137 16.7294 81.0223 16.4266 80.6565 16.2037C80.2908 15.9808 79.8879 15.8694 79.4478 15.8694C79.0135 15.8694 78.6249 15.9837 78.282 16.2123C77.9391 16.4351 77.6705 16.738 77.4762 17.1209C77.2819 17.4981 77.1847 17.9124 77.1847 18.3639C77.1847 18.8268 77.2819 19.2497 77.4762 19.6326C77.6705 20.0098 77.9391 20.3098 78.282 20.5327C78.6249 20.7556 79.0135 20.867 79.4478 20.867Z" fill="#160B30"/>
<path d="M65.2939 19.4955V14.0949H67.3856V18.9468C67.3856 19.284 67.4684 19.5926 67.6342 19.8726C67.7999 20.147 68.0199 20.367 68.2942 20.5327C68.5743 20.6927 68.88 20.7727 69.2115 20.7727C69.5544 20.7727 69.863 20.6927 70.1373 20.5327C70.4116 20.367 70.6316 20.147 70.7973 19.8726C70.9631 19.5926 71.0459 19.284 71.0459 18.9468V14.0949H73.1376L73.1462 22.6672H71.0545L71.0459 21.8871C70.7488 22.1957 70.3973 22.4415 69.9916 22.6243C69.5858 22.8015 69.1515 22.8901 68.6886 22.8901C68.0656 22.8901 67.497 22.7386 66.9827 22.4358C66.4683 22.1272 66.0569 21.7185 65.7483 21.2099C65.4454 20.6956 65.2939 20.1241 65.2939 19.4955Z" fill="#160B30"/>
<path d="M63.9289 17.2495V22.6672H61.8372V17.7981C61.8372 17.461 61.7544 17.1552 61.5886 16.8809C61.4229 16.6009 61.2 16.3808 60.92 16.2208C60.6457 16.0551 60.3399 15.9722 60.0028 15.9722C59.6656 15.9722 59.357 16.0551 59.077 16.2208C58.8026 16.3808 58.5826 16.6009 58.4169 16.8809C58.2569 17.1552 58.1769 17.461 58.1769 17.7981V22.6672H56.0852L56.0767 9.80876H58.1683L58.1769 14.8578C58.4683 14.5492 58.8169 14.3064 59.2227 14.1292C59.6284 13.9463 60.0656 13.8549 60.5342 13.8549C61.1572 13.8549 61.7258 14.0092 62.2401 14.3178C62.7545 14.6207 63.1631 15.0293 63.466 15.5436C63.7746 16.0522 63.9289 16.6209 63.9289 17.2495Z" fill="#160B30"/>
<path d="M51.9253 22.6672V9.80876H54.0169V22.6672H51.9253Z" fill="#160B30"/>
<path d="M47.7725 22.6672V9.80876H49.8641V22.6672H47.7725Z" fill="#160B30"/>
<path d="M43.587 14.0949H45.6787V22.6672H43.587V14.0949ZM44.65 12.9891C44.3414 12.9891 44.0814 12.8891 43.8699 12.6891C43.6585 12.4833 43.5527 12.2262 43.5527 11.9176C43.5527 11.6147 43.6585 11.3604 43.8699 11.1546C44.0814 10.9489 44.3385 10.846 44.6414 10.846C44.9443 10.846 45.1986 10.9489 45.4043 11.1546C45.6158 11.3604 45.7215 11.6147 45.7215 11.9176C45.7215 12.2262 45.6187 12.4833 45.4129 12.6891C45.2072 12.8891 44.9529 12.9891 44.65 12.9891Z" fill="#160B30"/>
<path d="M42.3352 22.6672H39.9264L37.9719 19.2983L36.7718 20.7298V22.6672H34.6802V9.80876H36.7718V17.481L39.6092 14.0949H42.3438L39.4035 17.601L42.3352 22.6672Z" fill="#160B30"/>
<path d="M28.2516 22.8901C27.5887 22.8901 26.9515 22.7872 26.34 22.5815C25.7342 22.37 25.2028 22.07 24.7456 21.6814C24.2884 21.2871 23.9598 20.8156 23.7598 20.267L25.7228 19.5469C25.8028 19.7755 25.9657 19.9841 26.2114 20.1727C26.4572 20.3612 26.7572 20.5127 27.1115 20.627C27.4658 20.7413 27.8459 20.7984 28.2516 20.7984C28.6688 20.7984 29.0574 20.7356 29.4175 20.6098C29.7832 20.4784 30.0775 20.2984 30.3004 20.0698C30.5233 19.8355 30.6347 19.564 30.6347 19.2554C30.6347 18.9411 30.5176 18.6839 30.2833 18.4839C30.049 18.2782 29.7489 18.1153 29.3832 17.9953C29.0174 17.8753 28.6403 17.7839 28.2516 17.721C27.4001 17.5895 26.6372 17.3867 25.9628 17.1124C25.2885 16.838 24.7542 16.458 24.3598 15.9722C23.9712 15.4865 23.7769 14.8578 23.7769 14.0863C23.7769 13.3606 23.9855 12.7262 24.4027 12.1833C24.8199 11.6404 25.3685 11.2175 26.0486 10.9146C26.7286 10.6117 27.463 10.4603 28.2516 10.4603C28.9088 10.4603 29.5432 10.5631 30.1547 10.7689C30.7662 10.9746 31.3005 11.2746 31.7577 11.669C32.2206 12.0633 32.5521 12.5376 32.7521 13.092L30.7805 13.8035C30.7005 13.5749 30.5376 13.3663 30.2918 13.1777C30.0461 12.9891 29.7461 12.8405 29.3918 12.7319C29.0374 12.6176 28.6574 12.5605 28.2516 12.5605C27.8459 12.5548 27.4601 12.6205 27.0944 12.7576C26.7343 12.8891 26.44 13.0691 26.2114 13.2977C25.9828 13.5263 25.8685 13.7892 25.8685 14.0863C25.8685 14.4692 25.9743 14.7578 26.1857 14.9521C26.4029 15.1464 26.6915 15.2893 27.0515 15.3808C27.4116 15.4665 27.8116 15.5465 28.2516 15.6208C29.0517 15.7465 29.7918 15.958 30.4719 16.2551C31.1519 16.5523 31.6977 16.9495 32.1092 17.4467C32.5206 17.9382 32.7264 18.5411 32.7264 19.2554C32.7264 19.9812 32.5206 20.6184 32.1092 21.167C31.6977 21.71 31.1519 22.1329 30.4719 22.4357C29.7918 22.7386 29.0517 22.8901 28.2516 22.8901Z" fill="#160B30"/>
<path fill-rule="evenodd" clip-rule="evenodd" d="M11.4097 13.9168C12.7615 10.195 13.9798 5.61973 12.7493 0C19.1393 9.70141 17.9648 20.8138 12.6592 32.6959C14.6661 25.6188 15.3941 17.0122 11.41 13.9168" fill="#B33F3C"/>
<mask id="mask0_269_200" style="mask-type:luminance" maskUnits="userSpaceOnUse" x="11" y="0" width="7" height="33">
<path d="M11.4097 13.9168C12.7615 10.195 13.9798 5.61973 12.7493 0C19.1393 9.70141 17.9648 20.8138 12.6592 32.6959C14.6661 25.6188 15.3941 17.0122 11.41 13.9168" fill="white"/>
</mask>
<g mask="url(#mask0_269_200)">
<path d="M19.1393 0H11.4097V32.6959H19.1393V0Z" fill="#F5C447"/>
</g>
<path fill-rule="evenodd" clip-rule="evenodd" d="M12.6586 32.6959C12.6979 21.6459 8.73192 15.4323 0 14.9745C15.8094 7.08491 15.7693 21.7287 12.6586 32.6959Z" fill="#B33F3C"/>
<mask id="mask1_269_200" style="mask-type:luminance" maskUnits="userSpaceOnUse" x="0" y="12" width="15" height="21">
<path d="M12.6586 32.6959C12.6979 21.6459 8.73192 15.4323 0 14.9745C15.8094 7.08491 15.7693 21.7287 12.6586 32.6959Z" fill="white"/>
</mask>
<g mask="url(#mask1_269_200)">
<path d="M15.8094 7.0849H0V32.6959H15.8094V7.0849Z" fill="#712EFF"/>
</g>
<path fill-rule="evenodd" clip-rule="evenodd" d="M8.87303 6.97919C9.95266 6.97919 10.8276 7.86521 10.8276 8.95784C10.8276 10.0505 9.95236 10.9365 8.87303 10.9365C7.7937 10.9365 6.91846 10.0505 6.91846 8.95784C6.91846 7.86521 7.7937 6.97919 8.87303 6.97919Z" fill="#B33F3C"/>
<mask id="mask2_269_200" style="mask-type:luminance" maskUnits="userSpaceOnUse" x="6" y="6" width="5" height="5">
<path d="M8.87303 6.97919C9.95266 6.97919 10.8276 7.86521 10.8276 8.95784C10.8276 10.0505 9.95236 10.9365 8.87303 10.9365C7.7937 10.9365 6.91846 10.0505 6.91846 8.95784C6.91846 7.86521 7.7937 6.97919 8.87303 6.97919Z" fill="white"/>
</mask>
<g mask="url(#mask2_269_200)">
<path d="M10.8274 6.97919H6.91797V10.9368H10.8274V6.97919Z" fill="#F5C447"/>
</g>
</svg>
