<svg width="297" height="152" viewBox="0 0 297 152" fill="none" xmlns="http://www.w3.org/2000/svg">
<path d="M64.3879 98.7014C59.4053 95.8247 55.2678 91.6872 52.3911 86.7046C49.5144 81.7221 48 76.0701 48 70.3167L80.7758 70.3167L64.3879 98.7014Z" fill="#92FB00"/>
<path d="M116.221 98.64L63.8649 98.64L90.0428 53.2986L116.221 98.64Z" fill="url(#paint0_linear_243_888)"/>
<path d="M154.943 43.8L149.653 59.44L155.311 76H149.975L145.835 63.258L141.649 76H136.911L142.569 59.44L137.279 43.8H142.523L146.341 55.668L150.251 43.8H154.943ZM165.738 43.8C170.798 43.8 173.282 46.606 173.282 51.758V55.944C173.282 61.096 170.798 63.902 165.738 63.902H163.346V76H158.286V43.8H165.738ZM163.346 48.4V59.302H165.738C167.348 59.302 168.222 58.566 168.222 56.266V51.436C168.222 49.136 167.348 48.4 165.738 48.4H163.346ZM176.311 43.8H181.371V71.4H189.697V76H176.311V43.8ZM191.945 51.528C191.945 46.376 194.659 43.432 199.627 43.432C204.595 43.432 207.309 46.376 207.309 51.528V68.272C207.309 73.424 204.595 76.368 199.627 76.368C194.659 76.368 191.945 73.424 191.945 68.272V51.528ZM197.005 68.594C197.005 70.894 198.017 71.768 199.627 71.768C201.237 71.768 202.249 70.894 202.249 68.594V51.206C202.249 48.906 201.237 48.032 199.627 48.032C198.017 48.032 197.005 48.906 197.005 51.206V68.594ZM221.637 76C221.361 75.172 221.177 74.666 221.177 72.044V66.984C221.177 63.994 220.165 62.89 217.865 62.89H216.117V76H211.057V43.8H218.693C223.937 43.8 226.191 46.238 226.191 51.206V53.736C226.191 57.048 225.133 59.21 222.879 60.268C225.409 61.326 226.237 63.764 226.237 67.122V72.09C226.237 73.654 226.283 74.804 226.789 76H221.637ZM216.117 48.4V58.29H218.095C219.981 58.29 221.131 57.462 221.131 54.886V51.712C221.131 49.412 220.349 48.4 218.555 48.4H216.117ZM246.401 76H241.295L240.421 70.158H234.211L233.337 76H228.691L233.843 43.8H241.249L246.401 76ZM234.855 65.788H239.731L237.293 49.504L234.855 65.788Z" fill="#07B717"/>
<path d="M141.277 98.112C140.455 98.112 139.719 97.9787 139.069 97.712C138.418 97.4453 137.895 97.0507 137.501 96.528C137.117 96.0053 136.914 95.376 136.893 94.64H139.805C139.847 95.056 139.991 95.376 140.237 95.6C140.482 95.8133 140.802 95.92 141.197 95.92C141.602 95.92 141.922 95.8293 142.157 95.648C142.391 95.456 142.509 95.1947 142.509 94.864C142.509 94.5867 142.413 94.3573 142.221 94.176C142.039 93.9947 141.81 93.8453 141.533 93.728C141.266 93.6107 140.882 93.4773 140.381 93.328C139.655 93.104 139.063 92.88 138.605 92.656C138.146 92.432 137.751 92.1013 137.421 91.664C137.09 91.2267 136.925 90.656 136.925 89.952C136.925 88.9067 137.303 88.0907 138.061 87.504C138.818 86.9067 139.805 86.608 141.021 86.608C142.258 86.608 143.255 86.9067 144.013 87.504C144.77 88.0907 145.175 88.912 145.229 89.968H142.269C142.247 89.6053 142.114 89.3227 141.869 89.12C141.623 88.9067 141.309 88.8 140.925 88.8C140.594 88.8 140.327 88.8907 140.125 89.072C139.922 89.2427 139.821 89.4933 139.821 89.824C139.821 90.1867 139.991 90.4693 140.333 90.672C140.674 90.8747 141.207 91.0933 141.933 91.328C142.658 91.5733 143.245 91.808 143.693 92.032C144.151 92.256 144.546 92.5813 144.877 93.008C145.207 93.4347 145.373 93.984 145.373 94.656C145.373 95.296 145.207 95.8773 144.877 96.4C144.557 96.9227 144.087 97.3387 143.469 97.648C142.85 97.9573 142.119 98.112 141.277 98.112ZM147.872 92.368C147.872 91.2587 148.112 90.272 148.592 89.408C149.072 88.5333 149.739 87.856 150.592 87.376C151.456 86.8853 152.432 86.64 153.52 86.64C154.854 86.64 155.995 86.992 156.944 87.696C157.894 88.4 158.528 89.36 158.848 90.576H155.84C155.616 90.1067 155.296 89.7493 154.88 89.504C154.475 89.2587 154.011 89.136 153.488 89.136C152.646 89.136 151.963 89.4293 151.44 90.016C150.918 90.6027 150.656 91.3867 150.656 92.368C150.656 93.3493 150.918 94.1333 151.44 94.72C151.963 95.3067 152.646 95.6 153.488 95.6C154.011 95.6 154.475 95.4773 154.88 95.232C155.296 94.9867 155.616 94.6293 155.84 94.16H158.848C158.528 95.376 157.894 96.336 156.944 97.04C155.995 97.7333 154.854 98.08 153.52 98.08C152.432 98.08 151.456 97.84 150.592 97.36C149.739 96.8693 149.072 96.192 148.592 95.328C148.112 94.464 147.872 93.4773 147.872 92.368ZM171.532 86.768V98H168.796V93.376H164.54V98H161.804V86.768H164.54V91.168H168.796V86.768H171.532ZM180.099 98.112C179.043 98.112 178.072 97.8667 177.187 97.376C176.312 96.8853 175.614 96.2027 175.091 95.328C174.579 94.4427 174.323 93.4507 174.323 92.352C174.323 91.2533 174.579 90.2667 175.091 89.392C175.614 88.5173 176.312 87.8347 177.187 87.344C178.072 86.8533 179.043 86.608 180.099 86.608C181.155 86.608 182.12 86.8533 182.995 87.344C183.88 87.8347 184.574 88.5173 185.075 89.392C185.587 90.2667 185.843 91.2533 185.843 92.352C185.843 93.4507 185.587 94.4427 185.075 95.328C184.563 96.2027 183.87 96.8853 182.995 97.376C182.12 97.8667 181.155 98.112 180.099 98.112ZM180.099 95.616C180.995 95.616 181.71 95.3173 182.243 94.72C182.787 94.1227 183.059 93.3333 183.059 92.352C183.059 91.36 182.787 90.5707 182.243 89.984C181.71 89.3867 180.995 89.088 180.099 89.088C179.192 89.088 178.467 89.3813 177.923 89.968C177.39 90.5547 177.123 91.3493 177.123 92.352C177.123 93.344 177.39 94.1387 177.923 94.736C178.467 95.3227 179.192 95.616 180.099 95.616ZM193.957 98.112C192.901 98.112 191.931 97.8667 191.045 97.376C190.171 96.8853 189.472 96.2027 188.949 95.328C188.437 94.4427 188.181 93.4507 188.181 92.352C188.181 91.2533 188.437 90.2667 188.949 89.392C189.472 88.5173 190.171 87.8347 191.045 87.344C191.931 86.8533 192.901 86.608 193.957 86.608C195.013 86.608 195.979 86.8533 196.853 87.344C197.739 87.8347 198.432 88.5173 198.933 89.392C199.445 90.2667 199.701 91.2533 199.701 92.352C199.701 93.4507 199.445 94.4427 198.933 95.328C198.421 96.2027 197.728 96.8853 196.853 97.376C195.979 97.8667 195.013 98.112 193.957 98.112ZM193.957 95.616C194.853 95.616 195.568 95.3173 196.101 94.72C196.645 94.1227 196.917 93.3333 196.917 92.352C196.917 91.36 196.645 90.5707 196.101 89.984C195.568 89.3867 194.853 89.088 193.957 89.088C193.051 89.088 192.325 89.3813 191.781 89.968C191.248 90.5547 190.981 91.3493 190.981 92.352C190.981 93.344 191.248 94.1387 191.781 94.736C192.325 95.3227 193.051 95.616 193.957 95.616ZM205.239 95.888H208.823V98H202.503V86.768H205.239V95.888Z" fill="#1A2D00"/>
<line x1="223.228" y1="96.945" x2="248.228" y2="96.945" stroke="#1A2D00" stroke-width="2.11"/>
<line x1="232.347" y1="92.8571" x2="248.201" y2="92.8571" stroke="#1A2D00" stroke-width="2.11"/>
<line x1="240.273" y1="88.4755" x2="248.201" y2="88.4755" stroke="#1A2D00" stroke-width="2.11"/>
<defs>
<linearGradient id="paint0_linear_243_888" x1="82.1103" y1="53.2986" x2="82.1103" y2="98.7014" gradientUnits="userSpaceOnUse">
<stop stop-color="#00E65C"/>
<stop offset="1" stop-color="#08A800"/>
</linearGradient>
</defs>
</svg>
